TITLE ""
FILE "DISC2Track05.mp3" MP3
  TRACK 01 AUDIO
    TITLE "DISC2Track05_01"
    INDEX 01 00:00:00
  TRACK 02 AUDIO
    TITLE "DISC2Track05_02"
    INDEX 01 00:01:14
  TRACK 03 AUDIO
    TITLE "DISC2Track05_03"
    INDEX 01 00:01:27
  TRACK 04 AUDIO
    TITLE "DISC2Track05_04"
    INDEX 01 00:04:57
  TRACK 05 AUDIO
    TITLE "DISC2Track05_05"
    INDEX 01 00:07:69
  TRACK 06 AUDIO
    TITLE "DISC2Track05_06"
    INDEX 01 00:10:60
  TRACK 07 AUDIO
    TITLE "DISC2Track05_07"
    INDEX 01 00:11:00
  TRACK 08 AUDIO
    TITLE "DISC2Track05_08"
    INDEX 01 00:14:34
  TRACK 09 AUDIO
    TITLE "DISC2Track05_09"
    INDEX 01 00:18:40
  TRACK 10 AUDIO
    TITLE "DISC2Track05_10"
    INDEX 01 00:22:12
  TRACK 11 AUDIO
    TITLE "DISC2Track05_11"
    INDEX 01 00:22:22
  TRACK 12 AUDIO
    TITLE "DISC2Track05_12"
    INDEX 01 00:27:62
  TRACK 13 AUDIO
    TITLE "DISC2Track05_13"
    INDEX 01 00:32:42
  TRACK 14 AUDIO
    TITLE "DISC2Track05_14"
    INDEX 01 00:36:63
  TRACK 15 AUDIO
    TITLE "DISC2Track05_15"
    INDEX 01 00:36:73
  TRACK 16 AUDIO
    TITLE "DISC2Track05_16"
    INDEX 01 00:39:57
  TRACK 17 AUDIO
    TITLE "DISC2Track05_17"
    INDEX 01 00:43:00
  TRACK 18 AUDIO
    TITLE "DISC2Track05_18"
    INDEX 01 00:45:64
  TRACK 19 AUDIO
    TITLE "DISC2Track05_19"
    INDEX 01 00:46:01
  TRACK 20 AUDIO
    TITLE "DISC2Track05_20"
    INDEX 01 00:49:56
  TRACK 21 AUDIO
    TITLE "DISC2Track05_21"
    INDEX 01 00:54:47
  TRACK 22 AUDIO
    TITLE "DISC2Track05_22"
    INDEX 01 00:59:05
  TRACK 23 AUDIO
    TITLE "DISC2Track05_23"
    INDEX 01 00:59:23
  TRACK 24 AUDIO
    TITLE "DISC2Track05_24"
    INDEX 01 01:00:61
  TRACK 25 AUDIO
    TITLE "DISC2Track05_25"
    INDEX 01 01:03:36
  TRACK 26 AUDIO
    TITLE "DISC2Track05_26"
    INDEX 01 01:05:49
  TRACK 27 AUDIO
    TITLE "DISC2Track05_27"
    INDEX 01 01:05:61
  TRACK 28 AUDIO
    TITLE "DISC2Track05_28"
    INDEX 01 01:09:47
  TRACK 29 AUDIO
    TITLE "DISC2Track05_29"
    INDEX 01 01:14:07
  TRACK 30 AUDIO
    TITLE "DISC2Track05_30"
    INDEX 01 01:18:06
  TRACK 31 AUDIO
    TITLE "DISC2Track05_31"
    INDEX 01 01:18:20
  TRACK 32 AUDIO
    TITLE "DISC2Track05_32"
    INDEX 01 01:21:60
  TRACK 33 AUDIO
    TITLE "DISC2Track05_33"
    INDEX 01 01:25:09
  TRACK 34 AUDIO
    TITLE "DISC2Track05_34"
    INDEX 01 01:28:11
  TRACK 35 AUDIO
    TITLE "DISC2Track05_35"
    INDEX 01 01:28:28
  TRACK 36 AUDIO
    TITLE "DISC2Track05_36"
    INDEX 01 01:31:11
  TRACK 37 AUDIO
    TITLE "DISC2Track05_37"
    INDEX 01 01:33:67
  TRACK 38 AUDIO
    TITLE "DISC2Track05_38"
    INDEX 01 01:36:24
  TRACK 39 AUDIO
    TITLE "DISC2Track05_39"
    INDEX 01 01:36:40
  TRACK 40 AUDIO
    TITLE "DISC2Track05_40"
    INDEX 01 01:39:34
  TRACK 41 AUDIO
    TITLE "DISC2Track05_41"
    INDEX 01 01:43:65
  TRACK 42 AUDIO
    TITLE "DISC2Track05_42"
    INDEX 01 01:47:69
